<svg width="30" height="27" viewBox="0 0 30 27" fill="none" xmlns="http://www.w3.org/2000/svg">
<path fill-rule="evenodd" clip-rule="evenodd" d="M15.7352 2.74838C15.2969 2.42852 14.7031 2.42852 14.2648 2.74838L6.25006 8.59707V23.2373C6.25006 23.93 6.8097 24.4915 7.50005 24.4915H10V16.9661C10 14.8881 11.679 13.2034 13.7501 13.2034H16.25C18.321 13.2034 20 14.8881 20 16.9661V24.4915H22.5C23.1904 24.4915 23.75 23.93 23.75 23.2373V8.59707L15.7352 2.74838ZM26.25 10.4214L28.0147 11.7093C28.5731 12.1167 29.3549 11.9929 29.7609 11.4326C30.1669 10.8724 30.0435 10.088 29.4851 9.68056L17.2057 0.719667C15.8907 -0.239889 14.1093 -0.239889 12.7944 0.719667L0.514871 9.68056C-0.0434417 10.088 -0.166879 10.8724 0.239167 11.4326C0.645213 11.9929 1.42698 12.1167 1.98529 11.7093L3.75007 10.4214V23.2373C3.75007 25.3154 5.429 27 7.50005 27H22.5C24.571 27 26.25 25.3154 26.25 23.2373V10.4214ZM17.5 24.4915V16.9661C17.5 16.2734 16.9404 15.7118 16.25 15.7118H13.7501C13.0597 15.7118 12.5001 16.2734 12.5001 16.9661V24.4915H17.5Z" fill="#344966"/>
</svg>
