<svg width="24" height="24" viewBox="0 0 24 24" fill="none" xmlns="http://www.w3.org/2000/svg">
<path fill-rule="evenodd" clip-rule="evenodd" d="M7 0C6.44772 0 6 0.447715 6 1V17C6 17.5523 6.44772 18 7 18H23C23.5523 18 24 17.5523 24 17V1C24 0.447716 23.5523 0 23 0H7ZM12.2692 12.0168C11.8551 11.4372 10.985 11.464 10.6074 12.0681L9.35625 14.07C8.93997 14.736 9.41881 15.6 10.2042 15.6H19.6793C20.4884 15.6 20.9625 14.6893 20.4986 14.0265L18.3169 10.9099C17.8933 10.3047 16.9823 10.3519 16.6235 10.9977L15.1683 13.617C14.8116 14.2592 13.9074 14.3104 13.4804 13.7126L12.2692 12.0168Z" fill="white"/>
<path d="M2.4 4.8H0.999999C0.447715 4.8 0 5.24772 0 5.8V20.4V23C0 23.5523 0.447715 24 1 24H19.4C19.9523 24 20.4 23.5523 20.4 23V21.4C20.4 20.8477 19.9523 20.4 19.4 20.4H4.6C4.04772 20.4 3.6 19.9523 3.6 19.4V5.8C3.6 5.24771 3.15229 4.8 2.6 4.8H2.4Z" fill="white"/>
<path fill-rule="evenodd" clip-rule="evenodd" d="M7 0C6.44772 0 6 0.447715 6 1V17C6 17.5523 6.44772 18 7 18H23C23.5523 18 24 17.5523 24 17V1C24 0.447716 23.5523 0 23 0H7ZM12.2692 12.0168C11.8551 11.4372 10.985 11.464 10.6074 12.0681L9.35625 14.07C8.93997 14.736 9.41881 15.6 10.2042 15.6H19.6793C20.4884 15.6 20.9625 14.6893 20.4986 14.0265L18.3169 10.9099C17.8933 10.3047 16.9823 10.3519 16.6235 10.9977L15.1683 13.617C14.8116 14.2592 13.9074 14.3104 13.4804 13.7126L12.2692 12.0168Z" stroke="white"/>
<path d="M2.4 4.8H0.999999C0.447715 4.8 0 5.24772 0 5.8V20.4V23C0 23.5523 0.447715 24 1 24H19.4C19.9523 24 20.4 23.5523 20.4 23V21.4C20.4 20.8477 19.9523 20.4 19.4 20.4H4.6C4.04772 20.4 3.6 19.9523 3.6 19.4V5.8C3.6 5.24771 3.15229 4.8 2.6 4.8H2.4Z" stroke="white"/>
</svg>
