<svg width="428" height="926" viewBox="0 0 428 926" fill="none" xmlns="http://www.w3.org/2000/svg">
<g clip-path="url(#clip0_113_45)">
<rect width="428" height="926" fill="#F8FCF8"/>
<path fill-rule="evenodd" clip-rule="evenodd" d="M123.328 124.061C137.867 130.408 148 144.927 148 161.824C148 184.518 129.596 203 106.894 203H-32.8935C-55.6439 203 -74 184.565 -74 161.824C-74 144.934 -63.8073 130.378 -49.2355 124.036C-49.3004 122.915 -49.3333 121.785 -49.3333 120.647C-49.3333 88.8095 -23.5648 63 8.22222 63C27.1165 63 43.8843 72.1188 54.378 86.2021C61.2767 81.9337 69.4067 79.4706 78.1111 79.4706C102.852 79.4706 122.952 99.3702 123.328 124.061Z" fill="white"/>
<path fill-rule="evenodd" clip-rule="evenodd" d="M130.672 310.061C116.133 316.408 106 330.927 106 347.824C106 370.518 124.404 389 147.106 389H286.893C309.644 389 328 370.565 328 347.824C328 330.934 317.807 316.378 303.236 310.036C303.3 308.915 303.333 307.785 303.333 306.647C303.333 274.809 277.565 249 245.778 249C226.884 249 210.116 258.119 199.622 272.202C192.723 267.934 184.593 265.471 175.889 265.471C151.148 265.471 131.048 285.37 130.672 310.061Z" fill="white"/>
<path fill-rule="evenodd" clip-rule="evenodd" d="M426.328 581.061C440.867 587.408 451 601.927 451 618.824C451 641.518 432.596 660 409.894 660H270.107C247.356 660 229 641.565 229 618.824C229 601.934 239.193 587.378 253.764 581.036C253.7 579.915 253.667 578.785 253.667 577.647C253.667 545.809 279.435 520 311.222 520C330.116 520 346.884 529.119 357.378 543.202C364.277 538.934 372.407 536.471 381.111 536.471C405.852 536.471 425.952 556.37 426.328 581.061Z" fill="white"/>
<path fill-rule="evenodd" clip-rule="evenodd" d="M167.328 776.061C181.867 782.408 192 796.927 192 813.824C192 836.518 173.596 855 150.894 855H11.1065C-11.6439 855 -30 836.565 -30 813.824C-30 796.934 -19.8073 782.378 -5.23552 776.036C-5.30043 774.915 -5.33333 773.785 -5.33333 772.647C-5.33333 740.809 20.4352 715 52.2222 715C71.1165 715 87.8843 724.119 98.378 738.202C105.277 733.934 113.407 731.471 122.111 731.471C146.852 731.471 166.952 751.37 167.328 776.061Z" fill="white"/>
</g>
<defs>
<clipPath id="clip0_113_45">
<rect width="428" height="926" fill="white"/>
</clipPath>
</defs>
</svg>
