<svg width="11" height="19" viewBox="0 0 11 19" fill="none" xmlns="http://www.w3.org/2000/svg">
<path d="M1.69223 8.31251C2.39319 8.31251 2.96146 8.8442 2.96146 9.50001C2.96146 10.1558 2.39319 10.6875 1.69223 10.6875V8.31251ZM0.37164 10.3397C-0.123952 9.87598 -0.123952 9.12405 0.37164 8.66029L8.44901 1.10312C8.94468 0.639373 9.74831 0.639373 10.244 1.10312C10.7396 1.56686 10.7396 2.31875 10.244 2.7825L3.06412 9.50001L10.244 16.2175C10.7396 16.6813 10.7396 17.4331 10.244 17.8969C9.74831 18.3607 8.94468 18.3607 8.44901 17.8969L0.37164 10.3397ZM1.69223 10.6875H1.26916V8.31251H1.69223V10.6875Z" fill="#130F49"/>
</svg>
