<svg width="27" height="27" viewBox="0 0 27 27" fill="none" xmlns="http://www.w3.org/2000/svg">
<path d="M13.5 0C20.9558 0 27 6.04416 27 13.5C27 20.9558 20.9558 27 13.5 27C10.936 27 8.47402 26.2825 6.34593 24.9504C5.4792 24.4079 4.67644 23.7684 3.9535 23.0454C3.22946 22.3213 2.58921 21.5171 2.04624 20.6488C0.716256 18.5219 0 16.0619 0 13.5C0 13.089 0.0184136 12.68 0.0550296 12.2738C0.12942 11.4488 0.858585 10.8402 1.68367 10.9146C2.50875 10.989 3.1173 11.7182 3.04291 12.5432C3.01437 12.8598 3 13.1789 3 13.5C3 15.4953 3.55599 17.4048 4.58988 19.0582C5.01246 19.734 5.51102 20.3602 6.07494 20.9242C6.63801 21.4873 7.26312 21.9853 7.93768 22.4075C9.59199 23.4431 11.5031 24 13.5 24C19.299 24 24 19.299 24 13.5C24 7.70101 19.299 3 13.5 3C10.693 3 8.07638 4.1091 6.14692 6.00306L8.24656 6.00512C9.07499 6.00512 9.74656 6.67669 9.74656 7.50512C9.74656 8.27438 9.16751 8.90838 8.4215 8.99503L8.24656 9.00512H2.24446C1.47521 9.00512 0.841203 8.42606 0.754556 7.68005L0.744464 7.50512V1.50527C0.744464 0.67684 1.41604 0.00526679 2.24446 0.00526679C3.01372 0.00526679 3.64772 0.584327 3.73437 1.33034L3.74446 1.50527L3.74383 4.16768C6.24915 1.54737 9.74336 0 13.5 0ZM12.375 6C12.9442 6 13.4152 6.4235 13.4897 6.97241L13.5 7.125V13.5H16.875C17.496 13.5 18 14.004 18 14.625C18 15.1942 17.5765 15.6652 17.0276 15.7397L16.875 15.75H12.375C11.8058 15.75 11.3348 15.3265 11.2603 14.7776L11.25 14.625V7.125C11.25 6.504 11.754 6 12.375 6Z" fill="#344966"/>
</svg>
